<svg xmlns="http://www.w3.org/2000/svg" viewBox="0 0 782 447.77"><defs><style>.cls-1{fill:#9bcc94;}</style></defs><g id="Ebene_2" data-name="Ebene 2"><g id="Ebene_1-2" data-name="Ebene 1"><path class="cls-1" d="M145.31,125.14c0,43.61-35.44,66.79-73.07,66.79-43.34,0-67.88-17.18-72-55.89L0,133.31H42.8l.27,2.73c2.19,15,10.64,24.26,26.72,24.26,19.9,0,30.53-13.9,30.53-33.8S89.42,92.69,70.61,92.69c-13.9,0-22.36,5.73-27.81,19.36H3.27L16.9,0H137.68V33.26H52.07L45.26,80.7l8.45-12.54c8.72-5.18,18.53-7.09,29.17-7.09C121.59,61.07,145.31,85.33,145.31,125.14Z"/><path class="cls-1" d="M331,112.32c0,52.34-31.9,79.61-69.25,79.61-12,0-26.44-3-33.8-7.64L218.38,169v72.51h-42.8V42.8h42.8V64.61l10.9-16.08c8.18-6.27,22.63-9.54,37.35-9.54C306.71,39,331,69.52,331,112.32Zm-43.89,2.73c0-28.63-13.91-46.62-34.08-46.62-19.63,0-34.62,12-34.62,45.25v6.55c0,31.35,16.9,42.25,33.26,42.25C272.36,162.48,287.08,146.67,287.08,115.05Z"/><path class="cls-1" d="M579.34,102.23v85.88h-42.8v-75a208.28,208.28,0,0,0-1.09-22.08c-1.64-14.45-9.27-22.63-22.9-22.63-16.36,0-24.54,14.45-24.54,44.16v75.52H445.48v-75a205.66,205.66,0,0,0-1.09-22.08c-1.91-14.45-9.27-22.63-23.17-22.63-16.36,0-24.27,14.45-24.27,44.16v75.52h-42.8V42.8H397V65.43l10.91-18c8.72-5.73,18-8.45,31.35-8.45,24.26,0,39.26,12,45.26,28.08l14.72-19.63c8.45-5.73,18-8.45,31.08-8.45,28.35,0,44.43,16.35,47.7,36.25C579.07,82.61,579.34,90.51,579.34,102.23Z"/><path d="M331.5,302.3q2.44-7.35,4.91-15.42t3.85-14.72q1.39-6.66,0-9.47l-.7-.7a25.67,25.67,0,0,0-9.46,2.11q-5.27,2.1-10.87,4.9c-3.75,1.88-7.36,3.86-10.87,6l-8.76,5.26q-2.81,1.41-11.22,6.66t-11.92,5.26h-1.4c-2.33,0-3.73-.93-4.2-2.81a10.28,10.28,0,0,1,.7-6.3q2.81-6.31,10.51-16.48t17.18-20.33a136,136,0,0,1,19.63-17.53q10.15-7.35,17.88-7.36a7.9,7.9,0,0,1,3.5.7c.93.47,2.33,1.18,4.21,2.11A10.5,10.5,0,0,1,349,229a8.25,8.25,0,0,1,.36,7c-.95,2.34-2.11,5.37-3.51,9.11s-1.4,6.78,0,9.11q3.5,6.32,4.21,7.71c.46.95.23,4-.7,9.12A206.08,206.08,0,0,1,341,303.36c-.47.93-.12,1.16,1.05.7a7.77,7.77,0,0,0,2.46-1.4c3.73-2.35,9.11-5.84,16.12-10.52s12.38-7.24,16.13-7.71h1.4c2.8,0,4,.47,3.5,1.4a2.24,2.24,0,0,1-2.1,1.4q-7,1.41-16.47,8.06A187.19,187.19,0,0,0,348,306.86c-4.2,3.27-7.25,5.72-9.11,7.36a19.58,19.58,0,0,0-4.21,4.91,40.41,40.41,0,0,0-2.8,6.31,114.78,114.78,0,0,1-4.91,10.87q-2.81,7-13.32,25.23t-23.48,37.51a302.68,302.68,0,0,1-26.29,34q-13.32,14.73-21.74,14.72a6.08,6.08,0,0,1-4.9-2.8q-3.51-4.91,2.8-17.53a240.26,240.26,0,0,1,15.77-26.64q9.46-14,19.28-26.29T288.38,358q6.31-7.73,12.27-14t13-14a60.53,60.53,0,0,0,7.71-7.71,102.62,102.62,0,0,0,6.31-9.12Q329,309.66,331.5,302.3ZM244.92,433.75a3,3,0,0,0,0,2.81q4.91-1.41,14.37-13t19.63-25.94q10.15-14.38,18.58-28t11.21-19.28c.46,0,1.16-1.88,2.11-5.61a15.84,15.84,0,0,0,2.1-4.91q-3.51,4.21-6.31,7c-1.87,1.86-3.5,3.62-4.91,5.26s-2.34,2.45-2.8,2.45q-5.62,7-13.32,16.83t-15.43,20.33q-7.69,10.51-14,21A187.41,187.41,0,0,0,246.32,431C245.86,431.88,245.39,432.81,244.92,433.75Zm91.84-202.6q-4.92,0-11.92,5.26a160.72,160.72,0,0,0-14.37,12.26,184.7,184.7,0,0,0-13.32,14q-6,7-8.77,10.52c-4.67,5.15-5.85,7.71-3.5,7.71q1.39,0,4.55-2.1a59.88,59.88,0,0,1,6-3.51q8.42-4.89,22.09-11.91T336.76,248q1.39-1.4,3.5-6.66c1.4-3.5,1.63-6,.7-7.36C340.49,232.09,339.09,231.15,336.76,231.15Z"/><path d="M392.84,290a4,4,0,0,0,2.8.7,55.94,55.94,0,0,0,21-4.56,118.34,118.34,0,0,0,18.92-9.46,130.89,130.89,0,0,0,16.83-11.22q7-5.61,15.42-11.22a6.87,6.87,0,0,1,3.51-1.4q1.39,0,0,2.1a27.76,27.76,0,0,1-3.51,4.21,114.94,114.94,0,0,1-15.07,12.27q-9.46,6.68-19.63,12.62a127.47,127.47,0,0,1-20.68,9.81q-10.52,3.87-18.23,3.86a25.87,25.87,0,0,1-14.72-4.21q-6.31-4.2-7-14,0-7.71,7.36-18.23a126.42,126.42,0,0,1,17.53-20,124.76,124.76,0,0,1,21.38-16.12q11.21-6.66,18.93-6.66a10.47,10.47,0,0,1,7.71,2.8c2.33,2.35,2.68,5.26,1.05,8.77a37.9,37.9,0,0,1-7.71,10.51,86.56,86.56,0,0,1-11.22,9.47,78.84,78.84,0,0,1-8.76,5.6,51.28,51.28,0,0,1-8.06,3.86,26.19,26.19,0,0,1-9.47,1.75,7.74,7.74,0,0,1-3.5-.7h-2.81a3.69,3.69,0,0,0-3.15,1.4,24.15,24.15,0,0,0-2.46,4.91,60.73,60.73,0,0,0-6,13q-2.46,7.36,7.37,10.17Zm7-34.71a3,3,0,0,0,1.4.35,21.73,21.73,0,0,0,8.77-2.45,62.85,62.85,0,0,0,10.16-6,96.17,96.17,0,0,0,9.11-7.36,50.47,50.47,0,0,0,6.31-6.66c2.81-3.26,3.27-4.91,1.41-4.91-2.35,0-5.38,1-9.12,3.16a101.56,101.56,0,0,0-11.21,7.36,126.48,126.48,0,0,0-10.17,8.41q-4.58,4.22-6,7C399.61,254.75,399.38,255.1,399.85,255.33Z"/><path d="M500.45,188.73q-20.7,43.13-38.21,89.39v1.4q-1.42,3.51-2.11,5.61t-1.4,4.91a26.14,26.14,0,0,0-1.4,3.5q-.7,2.1,0,2.1l.7-.7c0-.46.46-1.16,1.4-2.1Q465.75,283,470.3,275a113.42,113.42,0,0,1,12.27-17.17q3.49-4.22,10.16-11.57t14-14.37a99.55,99.55,0,0,1,15.08-11.92c5.13-3.26,9.81-4.91,14-4.91q7.71,0,10.51,5.26a47.84,47.84,0,0,1,4.21,10.87,7.35,7.35,0,0,1-.35,4.91,50.79,50.79,0,0,0-1.75,5.6q-.71,7-5.61,16.83a104.86,104.86,0,0,1-11.92,18.58,92.15,92.15,0,0,1-15.07,15.07q-8.07,6.32-15.07,6.31-7.73,0-14-6.31c-3.74-2.33-6.2-4.91-7.36-7.71s-2.45-4.21-3.85-4.21-5.38,6.08-11.92,18.23l-4.21,7a48.62,48.62,0,0,1-2.45,5.61,82.91,82.91,0,0,1-4.21,7.36c-1.63,2.56-3.15,4.91-4.55,7s-2.81,3.39-4.21,3.86c0,.46-.46.7-1.4.7-1.4,0-2.22-.83-2.46-2.46a16,16,0,0,1,.35-5.61,44.5,44.5,0,0,1,1.76-5.95,13.56,13.56,0,0,0,1.05-4.21q3.51-9.82,6.66-20.68t6.66-21.38q11.21-33,24.54-63.45a472.9,472.9,0,0,1,31.54-59.94q1.39-2.79,7.37-13t13.31-20.68a225.24,225.24,0,0,1,14.38-18.58q7-8.06,9.81-6.66c2.81,1.4,2.56,4.21-.7,8.41a65.92,65.92,0,0,0-6.31,9.12A543.36,543.36,0,0,0,500.45,188.73Zm-1.06,102c3.74,0,7.72-1.86,11.92-5.61a109.51,109.51,0,0,0,12.27-13,104,104,0,0,0,15.77-27.69q1.39-4.91.7-13t-6.31-8.06q-4.9,0-12.26,5.25a118.86,118.86,0,0,0-14.73,12.62q-7.35,7.37-13.67,14.72A132.29,132.29,0,0,0,484,267.6c-2.8,3.75-3.75,6.78-2.8,9.12s3,5.14,6.31,8.41C491.21,288.88,495.19,290.74,499.39,290.74Z"/><path d="M566.69,290a4.06,4.06,0,0,0,2.81.7,55.85,55.85,0,0,0,21-4.56,118.91,118.91,0,0,0,18.93-9.46,130,130,0,0,0,16.82-11.22q7-5.61,15.43-11.22a6.81,6.81,0,0,1,3.5-1.4q1.39,0,0,2.1a28.27,28.27,0,0,1-3.5,4.21,115.79,115.79,0,0,1-15.08,12.27q-9.45,6.68-19.63,12.62a127.47,127.47,0,0,1-20.68,9.81q-10.52,3.87-18.22,3.86a25.91,25.91,0,0,1-14.73-4.21q-6.3-4.2-7-14,0-7.71,7.36-18.23a126.42,126.42,0,0,1,17.53-20,124.76,124.76,0,0,1,21.38-16.12q11.21-6.66,18.93-6.66a10.46,10.46,0,0,1,7.71,2.8c2.34,2.35,2.69,5.26,1.06,8.77a38,38,0,0,1-7.72,10.51,86.47,86.47,0,0,1-11.21,9.47,78.72,78.72,0,0,1-8.77,5.6,50.86,50.86,0,0,1-8.06,3.86,26.14,26.14,0,0,1-9.46,1.75,7.75,7.75,0,0,1-3.51-.7h-2.8a3.7,3.7,0,0,0-3.16,1.4,23.72,23.72,0,0,0-2.45,4.91,59.77,59.77,0,0,0-6,13q-2.46,7.36,7.36,10.17Zm7-34.71a3,3,0,0,0,1.41.35,21.74,21.74,0,0,0,8.76-2.45,62.94,62.94,0,0,0,10.17-6,97.46,97.46,0,0,0,9.11-7.36,51.15,51.15,0,0,0,6.31-6.66c2.8-3.26,3.26-4.91,1.4-4.91q-3.51,0-9.11,3.16a100.73,100.73,0,0,0-11.22,7.36,128.26,128.26,0,0,0-10.17,8.41q-4.56,4.22-6,7C573.46,254.75,573.23,255.1,573.7,255.33Z"/><path d="M689.72,153.68c-.7-.23-2.22,1.75-4.55,6q-11.94,22.44-25.24,52.58t-25.24,62q-11.93,31.92-20.68,62.4t-11.57,53.63a55.35,55.35,0,0,1-1.05,7c-.7,3.73-2,5.61-3.86,5.61a1.24,1.24,0,0,1-1.4-1.41c-1.4-.94-2.1-3.27-2.1-7a79,79,0,0,1,1.05-12.26q1-6.68,2.45-12.62t2.11-8.77a697.83,697.83,0,0,1,29.79-101.65,1036,1036,0,0,1,42.42-96.75q3.49-8.41.7-8.41a16.47,16.47,0,0,0-3.16.35l-5.26,1.05Q638.2,159.65,611.56,166a32.31,32.31,0,0,1-6.31.7,17.33,17.33,0,0,0-6.31,1.4c-1.87.94-4.67,1.4-8.42,1.4a12.62,12.62,0,0,1-5.6-1c-1.41-.7-1.64-2-.71-3.85q1.42-3.51,13.67-7t27.35-6.31q15.06-2.8,28.39-4.56t16.82-1.75c4.21,0,7.24-.35,9.12-1.06a9.54,9.54,0,0,0,4.2-2.8,20.88,20.88,0,0,0,2.81-5.26q1.39-3.5,4.21-9.11L702,108.46q5.61-9.1,11.22-18.23,1.39-2.79,5.26-9.11t7.36-7h.7c3.26,0,4.44,1.4,3.51,4.21a117.9,117.9,0,0,1-6.67,12.62q-4.56,7.71-7.36,12.61a46.48,46.48,0,0,1-4.2,7.72q-3.52,5.61-7,11.56c-2.35,4-4.33,7.71-6,11.22s-2.46,5.5-2.46,6c0,.94.81,1.64,2.46,2.1a21.75,21.75,0,0,0,6,.7q4.89,0,6.3-.7h14.73q4.2,0,12.62.7c5.61.47,11.32,1.18,17.17,2.11a103.39,103.39,0,0,1,16.13,3.85q7.37,2.47,9.46,6c1.41,2.35.93,3.51-1.4,3.51a1.39,1.39,0,0,1-1-.35,1.46,1.46,0,0,0-1-.35,108.15,108.15,0,0,0-26.29-6q-12.27-1.05-27.69-1.06H710.05a52.18,52.18,0,0,0-13.67,1.41C692.64,153.33,690.42,153.92,689.72,153.68Z"/></g></g></svg>