<svg width="937" height="196" xmlns="http://www.w3.org/2000/svg" xmlns:xlink="http://www.w3.org/1999/xlink" overflow="hidden"><defs><clipPath id="clip0"><rect x="164" y="130" width="937" height="196"/></clipPath></defs><g clip-path="url(#clip0)" transform="translate(-164 -130)"><path d="M824.883 238.483 824.883 265.124 841.722 265.124C842.956 265.127 844.162 265.121 845.339 265.105 846.516 265.089 847.606 265.044 848.611 264.971 851.848 264.725 854.597 263.494 856.858 261.277 859.119 259.06 860.299 255.953 860.398 251.956 860.309 247.695 859.11 244.505 856.801 242.387 854.492 240.269 851.609 239.07 848.151 238.789 846.927 238.642 845.702 238.553 844.478 238.521 843.253 238.489 842.028 238.476 840.804 238.483ZM824.883 197.02 824.883 220.907 839.274 220.907C840.505 220.907 841.717 220.869 842.91 220.792 844.103 220.715 845.238 220.601 846.316 220.448 849.624 219.934 852.156 218.741 853.913 216.868 855.671 214.996 856.557 212.31 856.573 208.81 856.532 205.314 855.581 202.66 853.722 200.848 851.863 199.036 849.343 197.913 846.163 197.479 845.072 197.326 843.886 197.211 842.604 197.135 841.321 197.058 840.058 197.02 838.814 197.02ZM210.883 197.02 210.883 265.124 221.598 265.124C223.766 265.13 225.666 265.118 227.299 265.086 228.932 265.054 230.603 264.964 232.312 264.818 239.841 263.906 245.829 260.45 250.278 254.449 254.726 248.449 257.003 240.325 257.108 230.077 257.009 220.12 254.758 212.41 250.354 206.949 245.951 201.487 239.987 198.331 232.465 197.479 230.756 197.326 229.085 197.211 227.452 197.135 225.82 197.058 223.919 197.02 221.751 197.02ZM988.783 178.373 1083.01 178.373 1083.01 197.02 1047.82 197.02 1047.82 283.924 1023.97 283.924 1023.97 197.02 988.783 197.02ZM902.881 178.373 979.668 178.373 979.668 197.02 926.883 197.02 926.883 221.672 976.149 221.672 976.149 240.319 926.883 240.319 926.883 265.124 981.198 265.124 981.198 283.924 902.881 283.924ZM800.881 178.373 841.111 178.373C843.755 178.36 846.045 178.386 847.981 178.449 849.917 178.513 852.169 178.691 854.736 178.984 863.35 180.149 869.975 183.092 874.613 187.813 879.251 192.534 881.595 198.461 881.646 205.595 881.636 210.74 880.28 215.109 877.576 218.703 874.872 222.296 870.879 225.017 865.596 226.867 872.31 228.631 877.305 231.638 880.579 235.888 883.853 240.138 885.484 245.597 885.471 252.263 885.37 258.778 883.873 264.227 880.981 268.61 878.088 272.993 874.405 276.39 869.932 278.8 865.46 281.21 860.803 282.714 855.961 283.312 853.451 283.605 851.084 283.784 848.861 283.847 846.638 283.911 844.004 283.937 840.958 283.924L800.881 283.924ZM704.881 178.373 781.668 178.373 781.668 197.02 728.883 197.02 728.883 221.672 778.149 221.672 778.149 240.319 728.883 240.319 728.883 265.124 783.198 265.124 783.198 283.924 704.881 283.924ZM442.881 178.373 473.618 178.373 516.168 256.083C515.868 250.471 515.664 244.945 515.556 239.505 515.448 234.064 515.397 229.341 515.403 225.336L515.403 178.373 539.252 178.373 539.252 283.924 507.291 283.924 465.966 208.356C466.339 214 466.587 219.386 466.711 224.513 466.835 229.641 466.893 234.147 466.883 238.032L466.883 283.924 442.881 283.924ZM395.881 178.373 419.883 178.373 419.883 283.924 395.881 283.924ZM299.881 178.373 376.668 178.373 376.668 197.02 323.883 197.02 323.883 221.672 373.149 221.672 373.149 240.319 323.883 240.319 323.883 265.124 378.198 265.124 378.198 283.924 299.881 283.924ZM186.881 178.373 224.812 178.373C227.516 178.36 229.799 178.386 231.661 178.449 233.524 178.513 235.73 178.691 238.281 178.984 246.533 179.874 253.967 182.256 260.584 186.13 267.201 190.004 272.457 195.537 276.354 202.728 280.25 209.918 282.244 218.933 282.334 229.771 282.242 240.641 280.235 249.882 276.314 257.495 272.393 265.108 267.112 271.071 260.471 275.385 253.829 279.698 246.382 282.341 238.128 283.312 235.577 283.605 233.371 283.784 231.508 283.847 229.646 283.911 227.363 283.937 224.659 283.924L186.881 283.924ZM637.608 176.231C652.266 176.453 663.422 179.944 671.074 186.704 678.727 193.464 683.072 202.159 684.11 212.789L684.263 214.32 660.413 214.32 660.107 212.789C658.889 206.647 656.389 201.977 652.607 198.782 648.825 195.586 643.724 193.979 637.302 193.96 629.403 194.014 622.931 197.159 617.883 203.393 612.835 209.628 610.227 218.627 610.058 230.391 610.243 243.549 612.858 253.18 617.902 259.287 622.947 265.393 629.311 268.41 636.996 268.337 643.162 268.318 648.277 266.557 652.339 263.053 656.401 259.55 659.144 254.42 660.566 247.663L639.138 247.663 639.138 229.016 683.345 229.016 683.345 283.924 664.391 283.924 662.556 267.265 657.811 278.271C654.871 281.003 651.376 282.99 647.327 284.232 643.277 285.474 638.405 286.085 632.71 286.066 618.129 285.955 606.554 281.208 597.983 271.826 589.413 262.444 585.029 249.091 584.832 231.767 584.942 219.902 587.338 209.842 592.019 201.586 596.7 193.33 603.005 187.048 610.933 182.738 618.862 178.428 627.754 176.259 637.608 176.231Z" stroke="#000000" stroke-width="4" stroke-linejoin="round" stroke-miterlimit="10" fill="none" fill-rule="evenodd"/><text fill="#000000" fill-opacity="0" font-family="Arial,Arial_MSFontService,sans-serif" font-size="109.835" x="186.881" y="272.337">DEIN GEBET</text></g></svg>