<svg xmlns="http://www.w3.org/2000/svg" viewBox="0 0 896.61 616.86"><defs><style>.cls-1{fill:none;}.cls-1,.cls-2{stroke:#9bcc94;stroke-miterlimit:10;stroke-width:2px;}.cls-2{fill:#9bcc94;}</style></defs><g id="Ebene_2" data-name="Ebene 2"><g id="Ebene_1-2" data-name="Ebene 1"><path class="cls-1" d="M179.93,91.72v99.36h-37.8l-4.59-28.62L129.44,183c-10.53,8.91-23.22,11.88-42.93,11.88C36.83,194.86,2,161.92,2,99.28,2,34.48,45.74,1,96.77,1,150,1,177.23,29.35,181,66.07l.27,2.7h-48.6l-.54-2.7c-4-20-16.2-29.43-35.91-29.43-23.76,0-43.47,19.44-43.47,59.67,0,47,20.25,62.91,43.2,62.91,18.9,0,31.32-9.18,38.07-29.7H97.85V91.72Z"/><path class="cls-1" d="M356.78,191.08H214V4.78H354.08v37.8H262.55V78.76h86.13v37.8H262.55v36.72h94.23Z"/><path class="cls-1" d="M541.73,134.92c0,34.83-28.35,52.11-53.46,55.08-9.45,1.08-15.66,1.08-27.54,1.08H386.48V4.78h76.41c10,0,14.31,0,23.76,1.08,30.78,3.78,48.06,23.22,48.06,47.52,0,17-8.91,30-27.27,36.45C530.93,96.58,541.73,112.24,541.73,134.92ZM435.08,78.22H457a79.51,79.51,0,0,0,11.88-.81c8.91-1.35,15.12-5.94,15.12-17,0-10.53-5.67-15.66-14.85-17A83.32,83.32,0,0,0,457,42.58H435.08ZM491,133.3c0-12.42-8.91-18.9-18.9-19.71-3.51-.27-7.83-.27-12.15-.27H435.08v40h26.19c4.32,0,8.64,0,12.15-.27C482.06,152.47,491,145.45,491,133.3Z"/><path class="cls-1" d="M713.18,191.08H570.35V4.78H710.48v37.8H619V78.76h86.13v37.8H619v36.72h94.23Z"/><path class="cls-1" d="M834.13,42.58v148.5h-48.6V42.58H725.05V4.78H894.61v37.8Z"/><path class="cls-1" d="M178.93,302.22v99.36h-37.8L136.54,373l-8.1,20.52c-10.53,8.91-23.22,11.88-42.93,11.88C35.83,405.36,1,372.42,1,309.78,1,245,44.74,211.5,95.77,211.5c53.19,0,80.46,28.35,84.24,65.07l.27,2.7h-48.6l-.54-2.7c-4-20-16.2-29.43-35.91-29.43-23.76,0-43.47,19.44-43.47,59.67,0,47,20.25,62.91,43.2,62.91,18.9,0,31.32-9.18,38.07-29.7H96.85v-37.8Z"/><path class="cls-1" d="M355.78,401.58H213V215.28H353.08v37.8H261.55v36.18h86.13v37.8H261.55v36.72h94.23Z"/><path class="cls-1" d="M540.73,345.42c0,34.83-28.35,52.11-53.46,55.08-9.45,1.08-15.66,1.08-27.54,1.08H385.48V215.28h76.41c10,0,14.31,0,23.76,1.08,30.78,3.78,48.06,23.22,48.06,47.52,0,17-8.91,30-27.27,36.45C529.93,307.08,540.73,322.74,540.73,345.42Zm-106.65-56.7H456a79.51,79.51,0,0,0,11.88-.81c8.91-1.35,15.12-5.94,15.12-17,0-10.53-5.67-15.66-14.85-17a83.32,83.32,0,0,0-12.15-.81H434.08ZM490,343.8c0-12.42-8.91-18.9-18.9-19.71-3.51-.27-7.83-.27-12.15-.27H434.08v40h26.19c4.32,0,8.64,0,12.15-.27C481.06,363,490,356,490,343.8Z"/><path class="cls-1" d="M712.18,401.58H569.35V215.28H709.48v37.8H618v36.18h86.13v37.8H618v36.72h94.23Z"/><path class="cls-1" d="M833.13,253.08v148.5h-48.6V253.08H724.05v-37.8H893.61v37.8Z"/><path class="cls-2" d="M180.93,512.72v99.36h-37.8l-4.59-28.62L130.44,604c-10.53,8.91-23.22,11.88-42.93,11.88C37.83,615.86,3,582.92,3,520.28,3,455.48,46.74,422,97.77,422c53.19,0,80.46,28.35,84.24,65.07l.27,2.7h-48.6l-.54-2.7c-4-20-16.2-29.43-35.91-29.43-23.76,0-43.47,19.44-43.47,59.67,0,47,20.25,62.91,43.2,62.91,18.9,0,31.32-9.18,38.07-29.7H98.85v-37.8Z"/><path class="cls-2" d="M357.78,612.08H215V425.78H355.08v37.8H263.55v36.18h86.13v37.8H263.55v36.72h94.23Z"/><path class="cls-2" d="M542.73,555.92c0,34.83-28.35,52.11-53.46,55.08-9.45,1.08-15.66,1.08-27.54,1.08H387.48V425.78h76.41c10,0,14.31,0,23.76,1.08,30.78,3.78,48.06,23.22,48.06,47.52,0,17-8.91,30-27.27,36.45C531.93,517.58,542.73,533.24,542.73,555.92Zm-106.65-56.7H458a79.51,79.51,0,0,0,11.88-.81c8.91-1.35,15.12-5.94,15.12-17,0-10.53-5.67-15.66-14.85-17a83.32,83.32,0,0,0-12.15-.81H436.08ZM492,554.3c0-12.42-8.91-18.9-18.9-19.71-3.51-.27-7.83-.27-12.15-.27H436.08v40h26.19c4.32,0,8.64,0,12.15-.27C483.06,573.47,492,566.45,492,554.3Z"/><path class="cls-2" d="M714.18,612.08H571.35V425.78H711.48v37.8H620v36.18h86.13v37.8H620v36.72h94.23Z"/><path class="cls-2" d="M835.13,463.58v148.5h-48.6V463.58H726.05v-37.8H895.61v37.8Z"/></g></g></svg>