<svg xmlns="http://www.w3.org/2000/svg" viewBox="0 0 473.48 1093.19"><defs><style>.cls-1{fill:none;stroke:#fff;stroke-miterlimit:10;stroke-width:2px;}.cls-2{fill:#fff;}</style></defs><g id="Ebene_2" data-name="Ebene 2"><g id="Ebene_1-2" data-name="Ebene 1"><path class="cls-1" d="M98.13,818.25v52H78.33l-2.4-15-4.25,10.75c-5.51,4.67-12.16,6.22-22.48,6.22-26,0-44.27-17.25-44.27-50.06,0-34,22.91-51.48,49.64-51.48,27.86,0,42.15,14.85,44.13,34.08l.14,1.41H73.38l-.28-1.41c-2.12-10.47-8.49-15.42-18.81-15.42-12.45,0-22.77,10.19-22.77,31.26,0,24.61,10.61,33,22.63,33,9.9,0,16.4-4.81,19.94-15.55h-19v-19.8Z"/><path class="cls-1" d="M190.76,870.29H116V772.71h73.4v19.8H141.41v19h45.11v19.8H141.41v19.23h49.35Z"/><path class="cls-1" d="M287.64,840.87c0,18.25-14.85,27.3-28,28.86a113.81,113.81,0,0,1-14.43.56H206.32V772.71h40a90.52,90.52,0,0,1,12.45.56c16.12,2,25.17,12.16,25.17,24.89,0,8.91-4.66,15.7-14.28,19.1C282,820.79,287.64,829,287.64,840.87Zm-55.86-29.7h11.45a42.07,42.07,0,0,0,6.22-.42c4.67-.71,7.92-3.11,7.92-8.91,0-5.52-3-8.2-7.77-8.91a44.21,44.21,0,0,0-6.37-.42H231.78ZM261.05,840c0-6.51-4.67-9.9-9.9-10.33-1.84-.14-4.1-.14-6.36-.14h-13v20.93h13.71c2.27,0,4.53,0,6.37-.14A9.93,9.93,0,0,0,261.05,840Z"/><path class="cls-1" d="M377.44,870.29H302.63V772.71H376v19.8H328.09v19H373.2v19.8H328.09v19.23h49.35Z"/><path class="cls-1" d="M440.8,792.51v77.78H415.34V792.51H383.66v-19.8h88.82v19.8Z"/><path class="cls-1" d="M98.13,928.21v52H78.33l-2.4-15L71.68,976c-5.51,4.67-12.16,6.22-22.48,6.22-26,0-44.27-17.25-44.27-50.06,0-33.95,22.91-51.48,49.64-51.48,27.86,0,42.15,14.85,44.13,34.08l.14,1.42H73.38l-.28-1.42c-2.12-10.46-8.49-15.41-18.81-15.41-12.45,0-22.77,10.18-22.77,31.25,0,24.61,10.61,32.95,22.63,32.95,9.9,0,16.4-4.8,19.94-15.55h-19v-19.8Z"/><path class="cls-1" d="M190.76,980.25H116V882.67h73.4v19.8H141.41v18.95h45.11v19.8H141.41v19.23h49.35Z"/><path class="cls-1" d="M287.64,950.84c0,18.24-14.85,27.29-28,28.85a113.81,113.81,0,0,1-14.43.56H206.32V882.67h40a90.52,90.52,0,0,1,12.45.56c16.12,2,25.17,12.17,25.17,24.89,0,8.91-4.66,15.7-14.28,19.1C282,930.75,287.64,939,287.64,950.84Zm-55.86-29.7h11.45a42,42,0,0,0,6.22-.43c4.67-.71,7.92-3.11,7.92-8.91,0-5.51-3-8.2-7.77-8.91a44.21,44.21,0,0,0-6.37-.42H231.78ZM261.05,950c0-6.51-4.67-9.9-9.9-10.33-1.84-.14-4.1-.14-6.36-.14h-13v20.93h13.71c2.27,0,4.53,0,6.37-.14A9.93,9.93,0,0,0,261.05,950Z"/><path class="cls-1" d="M377.44,980.25H302.63V882.67H376v19.8H328.09v18.95H373.2v19.8H328.09v19.23h49.35Z"/><path class="cls-1" d="M440.8,902.47v77.78H415.34V902.47H383.66v-19.8h88.82v19.8Z"/><path class="cls-1" d="M94.2,1038.17v52H74.4l-2.4-15L67.75,1086c-5.51,4.67-12.16,6.22-22.48,6.22-26,0-44.27-17.25-44.27-50.06,0-33.94,22.91-51.48,49.64-51.48,27.86,0,42.15,14.85,44.13,34.08l.14,1.42H69.45l-.28-1.42c-2.12-10.46-8.49-15.41-18.81-15.41-12.45,0-22.77,10.18-22.77,31.25,0,24.61,10.61,33,22.63,33,9.9,0,16.4-4.81,19.94-15.56H51.21v-19.8Z"/><path class="cls-1" d="M186.83,1090.21H112V992.63h73.4v19.8H137.47v19h45.12v19.8H137.47v19.23h49.36Z"/><path class="cls-1" d="M283.71,1060.8c0,18.24-14.85,27.29-28,28.85a113.81,113.81,0,0,1-14.43.56H202.39V992.63h40a90.59,90.59,0,0,1,12.45.56c16.12,2,25.17,12.17,25.17,24.9,0,8.91-4.67,15.69-14.28,19.09C278.05,1040.71,283.71,1048.92,283.71,1060.8Zm-55.87-29.7H239.3a40.68,40.68,0,0,0,6.22-.43c4.67-.7,7.92-3.11,7.92-8.91,0-5.51-3-8.2-7.78-8.91a44,44,0,0,0-6.36-.42H227.84ZM257.12,1060c0-6.51-4.67-9.9-9.9-10.33-1.84-.14-4.1-.14-6.36-.14h-13v20.93h13.72c2.27,0,4.53,0,6.37-.14A9.93,9.93,0,0,0,257.12,1060Z"/><path class="cls-1" d="M373.51,1090.21H298.7V992.63h73.4v19.8H324.16v19h45.11v19.8H324.16v19.23h49.35Z"/><path class="cls-1" d="M436.87,1012.43v77.78H411.41v-77.78H379.73v-19.8h88.82v19.8Z"/><path class="cls-1" d="M98.13,598.32v52H78.33l-2.4-15-4.25,10.75c-5.51,4.66-12.16,6.22-22.48,6.22-26,0-44.27-17.25-44.27-50.07,0-33.94,22.91-51.48,49.64-51.48,27.86,0,42.15,14.85,44.13,34.09l.14,1.41H73.38l-.28-1.41c-2.12-10.47-8.49-15.42-18.81-15.42-12.45,0-22.77,10.19-22.77,31.26,0,24.61,10.61,32.95,22.63,32.95,9.9,0,16.4-4.81,19.94-15.56h-19v-19.8Z"/><path class="cls-1" d="M190.76,650.37H116V552.78h73.4v19.8H141.41v19h45.11v19.8H141.41v19.23h49.35Z"/><path class="cls-1" d="M287.64,621c0,18.25-14.85,27.3-28,28.85a111.83,111.83,0,0,1-14.43.57H206.32V552.78h40a89,89,0,0,1,12.45.57c16.12,2,25.17,12.16,25.17,24.89,0,8.91-4.66,15.7-14.28,19.09C282,600.87,287.64,609.07,287.64,621Zm-55.86-29.7h11.45a42.07,42.07,0,0,0,6.22-.42c4.67-.71,7.92-3.11,7.92-8.91,0-5.52-3-8.2-7.77-8.91a44.12,44.12,0,0,0-6.37-.43H231.78Zm29.27,28.85c0-6.5-4.67-9.9-9.9-10.32-1.84-.14-4.1-.14-6.36-.14h-13v20.93h13.71c2.27,0,4.53,0,6.37-.14A9.93,9.93,0,0,0,261.05,620.1Z"/><path class="cls-1" d="M377.44,650.37H302.63V552.78H376v19.8H328.09v19H373.2v19.8H328.09v19.23h49.35Z"/><path class="cls-1" d="M440.8,572.58v77.79H415.34V572.58H383.66v-19.8h88.82v19.8Z"/><path class="cls-1" d="M98.13,708.29v52H78.33l-2.4-15-4.25,10.75c-5.51,4.67-12.16,6.22-22.48,6.22-26,0-44.27-17.25-44.27-50.06,0-34,22.91-51.48,49.64-51.48,27.86,0,42.15,14.85,44.13,34.08l.14,1.41H73.38l-.28-1.41c-2.12-10.47-8.49-15.42-18.81-15.42-12.45,0-22.77,10.19-22.77,31.26,0,24.61,10.61,32.95,22.63,32.95,9.9,0,16.4-4.81,19.94-15.55h-19v-19.8Z"/><path class="cls-1" d="M190.76,760.33H116V662.75h73.4v19.8H141.41v19h45.11v19.8H141.41v19.23h49.35Z"/><path class="cls-1" d="M287.64,730.91c0,18.25-14.85,27.3-28,28.85a111.83,111.83,0,0,1-14.43.57H206.32V662.75h40a90.52,90.52,0,0,1,12.45.56c16.12,2,25.17,12.16,25.17,24.89,0,8.91-4.66,15.7-14.28,19.1C282,710.83,287.64,719,287.64,730.91Zm-55.86-29.7h11.45a42.07,42.07,0,0,0,6.22-.42c4.67-.71,7.92-3.11,7.92-8.91,0-5.52-3-8.2-7.77-8.91a44.21,44.21,0,0,0-6.37-.42H231.78Zm29.27,28.86c0-6.51-4.67-9.9-9.9-10.33-1.84-.14-4.1-.14-6.36-.14h-13v20.93h13.71c2.27,0,4.53,0,6.37-.14A9.93,9.93,0,0,0,261.05,730.07Z"/><path class="cls-1" d="M377.44,760.33H302.63V662.75H376v19.8H328.09v19H373.2v19.8H328.09v19.23h49.35Z"/><path class="cls-1" d="M440.8,682.55v77.78H415.34V682.55H383.66v-19.8h88.82v19.8Z"/><path class="cls-2" d="M98.13,378.4v52.05H78.33l-2.4-15-4.25,10.75c-5.51,4.66-12.16,6.22-22.48,6.22-26,0-44.27-17.26-44.27-50.07,0-33.94,22.91-51.48,49.64-51.48,27.86,0,42.15,14.85,44.13,34.09l.14,1.41H73.38L73.1,365C71,354.5,64.61,349.55,54.29,349.55c-12.45,0-22.77,10.18-22.77,31.26,0,24.61,10.61,32.95,22.63,32.95,9.9,0,16.4-4.81,19.94-15.56h-19V378.4Z"/><path class="cls-2" d="M190.76,430.45H116V332.86h73.4v19.8H141.41v18.95h45.11v19.8H141.41v19.24h49.35Z"/><path class="cls-2" d="M287.64,401c0,18.25-14.85,27.3-28,28.85a111.83,111.83,0,0,1-14.43.57H206.32V332.86h40a89,89,0,0,1,12.45.57c16.12,2,25.17,12.16,25.17,24.89,0,8.91-4.66,15.7-14.28,19.09C282,381,287.64,389.15,287.64,401Zm-55.86-29.7h11.45a42.07,42.07,0,0,0,6.22-.42c4.67-.71,7.92-3.11,7.92-8.91,0-5.52-3-8.21-7.77-8.91a42.74,42.74,0,0,0-6.37-.43H231.78Zm29.27,28.85c0-6.5-4.67-9.9-9.9-10.32-1.84-.14-4.1-.14-6.36-.14h-13v20.93h13.71c2.27,0,4.53,0,6.37-.14A9.94,9.94,0,0,0,261.05,400.18Z"/><path class="cls-2" d="M377.44,430.45H302.63V332.86H376v19.8H328.09v18.95H373.2v19.8H328.09v19.24h49.35Z"/><path class="cls-2" d="M440.8,352.66v77.79H415.34V352.66H383.66v-19.8h88.82v19.8Z"/><path class="cls-1" d="M98.13,488.36v52H78.33l-2.4-15-4.25,10.75c-5.51,4.66-12.16,6.22-22.48,6.22-26,0-44.27-17.26-44.27-50.07,0-33.94,22.91-51.48,49.64-51.48,27.86,0,42.15,14.85,44.13,34.09l.14,1.41H73.38l-.28-1.41c-2.12-10.47-8.49-15.42-18.81-15.42-12.45,0-22.77,10.19-22.77,31.26,0,24.61,10.61,33,22.63,33,9.9,0,16.4-4.81,19.94-15.56h-19v-19.8Z"/><path class="cls-1" d="M190.76,540.41H116V442.82h73.4v19.8H141.41v18.95h45.11v19.8H141.41v19.24h49.35Z"/><path class="cls-1" d="M287.64,511c0,18.25-14.85,27.3-28,28.85a111.83,111.83,0,0,1-14.43.57H206.32V442.82h40a89,89,0,0,1,12.45.57c16.12,2,25.17,12.16,25.17,24.89,0,8.91-4.66,15.7-14.28,19.09C282,490.91,287.64,499.11,287.64,511Zm-55.86-29.7h11.45a42.07,42.07,0,0,0,6.22-.42c4.67-.71,7.92-3.11,7.92-8.91,0-5.52-3-8.21-7.77-8.91a42.74,42.74,0,0,0-6.37-.43H231.78Zm29.27,28.85c0-6.5-4.67-9.9-9.9-10.32-1.84-.14-4.1-.14-6.36-.14h-13v20.93h13.71c2.27,0,4.53,0,6.37-.14A9.94,9.94,0,0,0,261.05,510.14Z"/><path class="cls-1" d="M377.44,540.41H302.63V442.82H376v19.8H328.09v18.95H373.2v19.8H328.09v19.24h49.35Z"/><path class="cls-1" d="M440.8,462.62v77.79H415.34V462.62H383.66v-19.8h88.82v19.8Z"/><path class="cls-1" d="M98.13,158.48v52.05H78.33l-2.4-15-4.25,10.75c-5.51,4.67-12.16,6.23-22.48,6.23-26,0-44.27-17.26-44.27-50.07C4.93,128.5,27.84,111,54.57,111,82.43,111,96.72,125.81,98.7,145l.14,1.42H73.38L73.1,145c-2.12-10.46-8.49-15.41-18.81-15.41-12.45,0-22.77,10.18-22.77,31.25,0,24.61,10.61,33,22.63,33,9.9,0,16.4-4.81,19.94-15.56h-19v-19.8Z"/><path class="cls-1" d="M190.76,210.53H116V112.94h73.4v19.8H141.41v18.95h45.11v19.8H141.41v19.24h49.35Z"/><path class="cls-1" d="M287.64,181.11c0,18.24-14.85,27.29-28,28.85a111.83,111.83,0,0,1-14.43.57H206.32V112.94h40a89,89,0,0,1,12.45.57c16.12,2,25.17,12.16,25.17,24.89,0,8.91-4.66,15.7-14.28,19.09C282,161,287.64,169.23,287.64,181.11Zm-55.86-29.7h11.45a40.68,40.68,0,0,0,6.22-.43c4.67-.7,7.92-3.11,7.92-8.9,0-5.52-3-8.21-7.77-8.91a42.74,42.74,0,0,0-6.37-.43H231.78Zm29.27,28.85c0-6.51-4.67-9.9-9.9-10.32-1.84-.15-4.1-.15-6.36-.15h-13v20.94h13.71c2.27,0,4.53,0,6.37-.15A9.93,9.93,0,0,0,261.05,180.26Z"/><path class="cls-1" d="M377.44,210.53H302.63V112.94H376v19.8H328.09v18.95H373.2v19.8H328.09v19.24h49.35Z"/><path class="cls-1" d="M440.8,132.74v77.79H415.34V132.74H383.66v-19.8h88.82v19.8Z"/><path class="cls-1" d="M98.13,48.52v52H78.33l-2.4-15L71.68,96.32c-5.51,4.67-12.16,6.23-22.48,6.23-26,0-44.27-17.26-44.27-50.07C4.93,18.54,27.84,1,54.57,1,82.43,1,96.72,15.85,98.7,35.08l.14,1.42H73.38l-.28-1.42C71,24.62,64.61,19.67,54.29,19.67c-12.45,0-22.77,10.18-22.77,31.25,0,24.61,10.61,33,22.63,33,9.9,0,16.4-4.81,19.94-15.56h-19V48.52Z"/><path class="cls-1" d="M190.76,100.57H116V3h73.4v19.8H141.41V41.73h45.11v19.8H141.41V80.77h49.35Z"/><path class="cls-1" d="M287.64,71.15c0,18.24-14.85,27.29-28,28.85a111.83,111.83,0,0,1-14.43.57H206.32V3h40a89,89,0,0,1,12.45.57C274.91,5.53,284,15.71,284,28.44c0,8.91-4.66,15.7-14.28,19.09C282,51.07,287.64,59.27,287.64,71.15Zm-55.86-29.7h11.45a40.68,40.68,0,0,0,6.22-.43c4.67-.7,7.92-3.11,7.92-8.91,0-5.51-3-8.2-7.77-8.91a44.21,44.21,0,0,0-6.37-.42H231.78ZM261.05,70.3c0-6.51-4.67-9.9-9.9-10.32-1.84-.15-4.1-.15-6.36-.15h-13V80.77h13.71c2.27,0,4.53,0,6.37-.15A9.93,9.93,0,0,0,261.05,70.3Z"/><path class="cls-1" d="M377.44,100.57H302.63V3H376v19.8H328.09V41.73H373.2v19.8H328.09V80.77h49.35Z"/><path class="cls-1" d="M440.8,22.78v77.79H415.34V22.78H383.66V3h88.82v19.8Z"/><path class="cls-1" d="M98.13,268.44v52.05H78.33l-2.4-15-4.25,10.74c-5.51,4.67-12.16,6.23-22.48,6.23-26,0-44.27-17.26-44.27-50.07,0-33.94,22.91-51.48,49.64-51.48,27.86,0,42.15,14.85,44.13,34.09l.14,1.41H73.38L73.1,255c-2.12-10.47-8.49-15.42-18.81-15.42-12.45,0-22.77,10.18-22.77,31.26,0,24.6,10.61,32.95,22.63,32.95,9.9,0,16.4-4.81,19.94-15.56h-19v-19.8Z"/><path class="cls-1" d="M190.76,320.49H116V222.9h73.4v19.8H141.41v18.95h45.11v19.8H141.41v19.24h49.35Z"/><path class="cls-1" d="M287.64,291.07c0,18.24-14.85,27.3-28,28.85a111.83,111.83,0,0,1-14.43.57H206.32V222.9h40a89,89,0,0,1,12.45.57c16.12,2,25.17,12.16,25.17,24.89,0,8.91-4.66,15.7-14.28,19.09C282,271,287.64,279.19,287.64,291.07Zm-55.86-29.7h11.45a42.07,42.07,0,0,0,6.22-.42c4.67-.71,7.92-3.12,7.92-8.91,0-5.52-3-8.21-7.77-8.91a42.74,42.74,0,0,0-6.37-.43H231.78Zm29.27,28.85c0-6.5-4.67-9.9-9.9-10.32-1.84-.14-4.1-.14-6.36-.14h-13v20.93h13.71c2.27,0,4.53,0,6.37-.14A9.94,9.94,0,0,0,261.05,290.22Z"/><path class="cls-1" d="M377.44,320.49H302.63V222.9H376v19.8H328.09v18.95H373.2v19.8H328.09v19.24h49.35Z"/><path class="cls-1" d="M440.8,242.7v77.79H415.34V242.7H383.66V222.9h88.82v19.8Z"/></g></g></svg>